<?xml version="1.0" encoding="UTF-8" standalone="no"?>
<svg id="svg2" xmlns:rdf="http://www.w3.org/1999/02/22-rdf-syntax-ns#" xmlns="http://www.w3.org/2000/svg" xml:space="preserve" height="48" width="48" version="1.1" enable-background="new 0 0 76.00 76.00" xmlns:cc="http://creativecommons.org/ns#" xmlns:dc="http://purl.org/dc/elements/1.1/" viewBox="0 0 48 48"><metadata id="metadata10"><rdf:RDF><cc:Work rdf:about=""><dc:format>image/svg+xml</dc:format><dc:type rdf:resource="http://purl.org/dc/dcmitype/StillImage"/><dc:title/></cc:Work></rdf:RDF></metadata>
	<path id="path4" stroke-linejoin="round" d="M24,0c13.255,0,24,10.745,24,24s-10.745,24-24,24-24-10.745-24-24,10.745-24,24-24zm-20.501,22.286,6.8212,0c0.11444-2.8374,0.51071-5.5387,1.1402-8.0186-1.5928-0.55878-3.0625-1.2208-4.381-1.9698-1.9963,2.881-3.2758,6.2965-3.5804,9.9884zm11.898-16.978c-2.3356,1.0768-4.435,2.5784-6.199,4.4059,0.98245,0.50887,2.0689,0.96718,3.2423,1.3665,0.80207-2.1933,1.8024-4.1432,2.9568-5.7723zm6.8888,16.977,0-6.0345c-2.6747-0.10784-5.2283-0.46621-7.5895-1.0341-0.51407,2.1742-0.8431,4.5574-0.94672,7.0685h8.5363zm0-18.573c-2.7222,0.91337-5.0818,3.9653-6.6322,8.2623,2.0553,0.45668,4.2879,0.74988,6.6322,0.84657v-9.1089zm22.215,18.573c-0.30456-3.6919-1.584-7.1073-3.5803-9.9884-1.3184,0.74902-2.7883,1.4111-4.381,1.9699,0.62938,2.4798,1.0256,5.1811,1.1401,8.0185h6.8212zm-11.898-16.978c1.1543,1.6291,2.1546,3.5791,2.9567,5.7723,1.1734-0.3993,2.2598-0.85761,3.2424-1.3665-1.764-1.8276-3.863-3.3292-6.199-4.406zm-6.8888,16.977,8.5362,0c-0.10351-2.5111-0.43265-4.8944-0.94661-7.0685-2.3613,0.56788-4.9149,0.92625-7.5895,1.0341v6.0345zm0-18.573,0,9.1089c2.3442-0.09669,4.5769-0.38988,6.6321-0.84657-1.5503-4.297-3.91-7.3489-6.6321-8.2623zm18.787,22.001-6.8212,0c-0.11444,2.8373-0.51071,5.5386-1.1401,8.0185,1.5927,0.55878,3.0625,1.2208,4.381,1.9698,1.9963-2.881,3.2757-6.2965,3.5803-9.9883zm-11.898,16.977c2.3356-1.0769,4.435-2.5785,6.199-4.406-0.98245-0.50887-2.0689-0.96718-3.2424-1.3665-0.80207,2.1933-1.8024,4.1433-2.9567,5.7724zm-6.8888-16.977,0,6.0343c2.6746,0.10784,5.2283,0.46621,7.5895,1.0341,0.51396-2.1742,0.8431-4.5573,0.94672-7.0684h-8.5363zm0,18.573c2.7221-0.91337,5.0818-3.9652,6.6322-8.2623-2.0553-0.45668-4.2881-0.74988-6.6322-0.84657v9.1089zm-22.215-18.573c0.30456,3.6918,1.5841,7.1073,3.5804,9.9883,1.3184-0.74902,2.7882-1.411,4.381-1.9698-0.62948-2.4799-1.0258-5.1812-1.1402-8.0185h-6.8212zm11.898,16.977c-1.1543-1.6291-2.1546-3.5791-2.9568-5.7724-1.1733,0.3993-2.2598,0.85761-3.2423,1.3666,1.7641,1.8274,3.8634,3.3291,6.199,4.4059zm6.8888-16.977-8.5363,0c0.10362,2.5111,0.43265,4.8944,0.94672,7.0684,2.3613-0.56788,4.9148-0.92625,7.5895-1.0341v-6.0343zm0,18.573,0-9.1089c-2.3443,0.09669-4.577,0.38988-6.6322,0.84657,1.5504,4.2971,3.91,7.349,6.6322,8.2623z" stroke-width="0.20000000000000001" fill="#6e966e"/>
</svg>
