<?xml version="1.0" encoding="UTF-8" standalone="no"?>
<svg id="svg2" xmlns:rdf="http://www.w3.org/1999/02/22-rdf-syntax-ns#" xmlns="http://www.w3.org/2000/svg" xml:space="preserve" height="48" width="48" version="1.1" enable-background="new 0 0 76.00 76.00" xmlns:cc="http://creativecommons.org/ns#" xmlns:dc="http://purl.org/dc/elements/1.1/" viewBox="0 0 48 48"><metadata id="metadata10"><rdf:RDF><cc:Work rdf:about=""><dc:format>image/svg+xml</dc:format><dc:type rdf:resource="http://purl.org/dc/dcmitype/StillImage"/><dc:title/></cc:Work></rdf:RDF></metadata>
	<path id="path4" stroke-linejoin="round" d="M10.645,3.4137,17.638,0.30049,19.869,5.3119c2.433-0.5407,4.902-0.5874,7.278-0.189l1.9665-5.123,7.1459,2.743-1.9665,5.123c2.0321,1.2937,3.8353,2.9802,5.2821,5.0103l5.0114-2.2312,3.1134,6.9925-5.0114,2.2312c0.54064,2.4337,0.58734,4.9022,0.18893,7.2782l5.122,1.966-2.743,7.146-5.123-1.966c-1.2937,2.0322-2.9802,3.8354-5.0103,5.2822l2.2311,5.0114-6.9924,3.1132-2.2312-5.0114c-2.4337,0.54064-4.9022,0.58734-7.278,0.18893l-1.9665,5.1229-7.1459-2.743,1.9665-5.1229c-2.033-1.294-3.8362-2.98-5.283-5.01l-5.0113,2.231-3.1133-6.993,5.0114-2.231c-0.5407-2.433-0.5873-4.902-0.1889-7.278l-5.1229-1.966,2.743-7.146,5.1229,1.966c1.2937-2.032,2.9801-3.8351,5.0101-5.2819l-2.231-5.0114zm8.685,10.098c-5.7929,2.5791-8.398,9.3659-5.8189,15.159,2.5791,5.7929,9.3659,8.398,15.159,5.8189,5.7929-2.5791,8.398-9.3659,5.8189-15.159-2.5791-5.7929-9.3659-8.398-15.159-5.8189z" stroke-width="0.20000000000000001" fill="#647d7d"/>
</svg>
