<?xml version="1.0" encoding="UTF-8" standalone="no"?>
<svg id="svg2" xmlns:rdf="http://www.w3.org/1999/02/22-rdf-syntax-ns#" xmlns="http://www.w3.org/2000/svg" height="48" width="48" version="1.1" xmlns:cc="http://creativecommons.org/ns#" xmlns:dc="http://purl.org/dc/elements/1.1/" viewBox="0 0 48 48" fill="#000000">
 <metadata id="metadata12">
  <rdf:RDF>
   <cc:Work rdf:about="">
    <dc:format>image/svg+xml</dc:format>
    <dc:type rdf:resource="http://purl.org/dc/dcmitype/StillImage"/>
    <dc:title/>
   </cc:Work>
  </rdf:RDF>
 </metadata>
 <path id="path4" fill="none" d="M0,24h24v24h-24z"/>
 <path id="path6" fill="#967d48" d="M38.7,20.08c-1.36-6.9-7.42-12.08-14.7-12.08-5.78,0-10.8,3.28-13.3,8.08-6.02,0.64-10.7,5.74-10.7,11.92,0,6.62,5.38,12,12,12h26c5.52,0,10-4.48,10-10,0-5.28-4.1-9.56-9.3-9.92zm-0.7,15.92h-26c-4.42,0-8-3.58-8-8s3.58-8,8-8h1.42c1.32-4.62,5.54-8,10.58-8,6.08,0,11,4.92,11,11v1h3c3.32,0,6,2.68,6,6s-2.68,6-6,6z"/>
</svg>
