<?xml version="1.0" encoding="UTF-8" standalone="no"?>
<svg xmlns:rdf="http://www.w3.org/1999/02/22-rdf-syntax-ns#" xmlns="http://www.w3.org/2000/svg" xml:space="preserve" height="48" width="48" version="1.1" enable-background="new 0 0 76.00 76.00" xmlns:cc="http://creativecommons.org/ns#" xmlns:dc="http://purl.org/dc/elements/1.1/" viewBox="0 0 48 48"><path stroke-linejoin="round" d="m6.9334 5.3333h34.133c1.1781 0 1.5999 4.8 1.5999 4.8h-37.333s0.42186-4.8 1.6-4.8zm13.867-5.3333h6.4c0.58907 0 2.1333 1.5442 2.1333 2.1333 0 0.58907-1.5442 2.1334-2.1333 2.1334h-6.4c-0.58907 0-2.1334-1.5444-2.1334-2.1334 0-0.5891 1.544-2.1333 2.133-2.1333zm-10.667 11.733h27.733c1.1783 0 2.1334 0.95515 2.1334 2.1334l-2.1334 32c0.001 1.179-0.954 2.134-2.133 2.134h-23.467c-1.1783 0-2.1334-0.95515-2.1334-2.1333l-2.1333-32c0-1.1783 0.95515-2.1334 2.1333-2.1334zm3.2 4.2667 0.53342 27.733h3.7333l-0.532-27.733h-3.734zm8.5334 0v27.733h4.2666v-27.733h-4.2666zm9.0666 0-0.53329 27.733h3.7333l0.534-27.733h-3.734z" stroke-width=".2" fill="#f0ffff"/></svg>
