<?xml version="1.0" encoding="UTF-8" standalone="no"?>
<svg xmlns:rdf="http://www.w3.org/1999/02/22-rdf-syntax-ns#" xmlns="http://www.w3.org/2000/svg" xml:space="preserve" height="48" width="48" version="1.1" enable-background="new 0 0 76.00 76.00" xmlns:cc="http://creativecommons.org/ns#" xmlns:dc="http://purl.org/dc/elements/1.1/" viewBox="0 0 48 48"><path stroke-linejoin="round" d="m10.56 23.04h5.76v9.6h9.5999v5.76h-9.5999v9.5999h-5.76v-9.5999h-9.6v-5.76h9.6v-9.6zm13.44-23.04c6.72 0 9.6 3.84 8.6308 11.9 0.86594 0.49657 1.4492 1.4302 1.4492 2.5 0 1.309-0.87334 2.4141-2.0692 2.7643-0.49961 1.7806-1.2754 3.3569-2.2508 4.6179v6.0577c3.2 0.64003 5.76 0.96004 9.6 2.88 3.8399 1.9201 5.12 3.6801 7.68 6.2401v9.12h-28.8v-5.76h9.6l-0.000121-9.6h-9.5999v-8.9377-0.66222h-0.47462c-0.75377-1.1345-1.3606-2.4744-1.7761-3.9557-1.1959-0.35021-2.0692-1.4553-2.0692-2.7643 0-1.0698 0.58328-2.0034 1.4492-2.5-0.969-8.06 1.911-11.9 8.631-11.9zm-23.04 46.08v-5.76h7.68v5.76h-7.68z" stroke-width=".2" fill="#f0ffff"/></svg>
