<?xml version="1.0" encoding="UTF-8" standalone="no"?>
<svg xmlns:rdf="http://www.w3.org/1999/02/22-rdf-syntax-ns#" xmlns="http://www.w3.org/2000/svg" xml:space="preserve" height="48" width="48" version="1.1" enable-background="new 0 0 76.00 76.00" xmlns:cc="http://creativecommons.org/ns#" xmlns:dc="http://purl.org/dc/elements/1.1/" viewBox="0 0 48 48"><path stroke-linejoin="round" d="m20.444 48v-3.1112l7.1112 1.3333v1.7779h-7.1112zm-3.5556-5.7777v-3.1112l14.222 1.7779v3.1111l-14.222-1.7777zm14.222-3.5556-14.222-1.7777v-3.1112l14.222 1.7779v3.1111zm-7.11-38.666c7.8547 0 14.222 6.7655 14.222 15.111 0 5.5933-7.1112 11.068-7.1112 13.09v5.5771l-14.222-1.778v-3.7994c0-1.534-7.1112-7.4963-7.1112-13.09-0.0001-8.3455 6.3672-15.111 14.222-15.111zm-5.7777 11.556-1.3333 7.1111h2.2221l1.3333-7.1111h-2.2221zm5.3332 0-1.3332 7.1111h2.2221l1.3333-7.1111h-2.2223zm5.3334 0-1.3333 7.1111h2.2221l1.3333-7.1111h-2.2221z" stroke-width=".2" fill="#f0ffff"/></svg>
