<?xml version="1.0" encoding="UTF-8" standalone="no"?>
<svg xmlns:rdf="http://www.w3.org/1999/02/22-rdf-syntax-ns#" xmlns="http://www.w3.org/2000/svg" xml:space="preserve" height="48" width="48" version="1.1" enable-background="new 0 0 76.00 76.00" xmlns:cc="http://creativecommons.org/ns#" xmlns:dc="http://purl.org/dc/elements/1.1/" viewBox="0 0 48.000001 48.000001"><path stroke-linejoin="round" d="m6.3158 5e-7h35.368c3.488 0 6.316 2.8277 6.316 6.3158v35.368c0 3.488-2.828 6.316-6.316 6.316h-35.368c-3.4883 0-6.316-2.828-6.316-6.316v-35.368c0-3.4883 2.8277-6.316 6.3158-6.316zm-0.000126 3.7895c-1.3953 0-2.5263 1.131-2.5263 2.5263v35.368c0 1.3953 1.131 2.5263 2.5263 2.5263h35.368c1.3952 0 2.5263-1.131 2.5263-2.5263v-35.368c0-1.3953-1.1312-2.5263-2.5263-2.5263h-35.368zm17.684 17.684c1.3953 0 2.5263 1.131 2.5263 2.5263s-1.131 2.5263-2.5263 2.5263-2.5263-1.131-2.5263-2.5263 1.131-2.5263 2.5263-2.5263zm15.841 6.3498c-1.5475-0.66265-3.1333-1.0681-4.6965-1.2188-1.5634-0.15057-3.1041-0.04674-4.6448 0.0581 0.25819 2.0469 0.51651 4.0939 0.47962 6.1712-0.03676 2.0771-0.36884 4.1845-0.99903 6.2549-0.32387 1.064-0.72644 2.1182-1.2064 3.1535l-0.72872 0.18328c-1.1288 0.26059-2.2573 0.41444-3.375 0.46813 0.19579-0.82712 0.33006-1.6511 0.40396-2.4648 0.15208-1.6766 0.04762-3.3101-0.29217-4.8435-0.33992-1.5333-0.91503-2.9664-1.4903-4.3996-1.8669 0.87827-3.7339 1.7564-5.7208 2.3632-1.9868 0.60682-4.0936 0.94232-6.2574 0.98274-1.1141 0.02021-2.2432-0.03663-3.3783-0.17368-0.75044-1.1438-1.384-2.3818-1.8802-3.7009 0.8467-0.06947 1.6714-0.1963 2.4678-0.37743 1.6415-0.37339 3.1628-0.97756 4.516-1.7746 1.3533-0.79693 2.5386-1.7869 3.7238-2.7768-1.414-1.503-2.826-3.007-4.017-4.709s-2.161-3.602-2.8681-5.648c-0.3635-1.051-0.6575-2.141-0.8778-3.261 0.864-1.0789 1.8476-2.0661 2.9368-2.9395 0.32779 0.78455 0.7037 1.5304 1.1224 2.2325 0.86236 1.4458 1.907 2.7059 3.0832 3.7467 1.1763 1.0407 2.4839 1.862 3.7916 2.6835 0.99423-1.8078 1.9885-3.6158 3.2391-5.2746 1.2508-1.6588 2.7581-3.1685 4.4848-4.473 0.888-0.67099 1.8341-1.2875 2.8316-1.8433 1.3 0.49339 2.5403 1.1276 3.6983 1.8884-0.64345 0.55339-1.2356 1.1404-1.773 1.7545-1.1084 1.2669-1.9842 2.6499-2.6104 4.0901-0.6264 1.4403-1.0033 2.9377-1.3804 4.4352 2.0266 0.3869 4.0531 0.77381 6.0173 1.4507 1.9641 0.67693 3.8656 1.644 5.64 2.883 0.91339 0.63802 1.7931 1.348 2.6308 2.126-0.06632 1.4006-0.28838 2.7747-0.65267 4.1003-0.72619-0.44185-1.4684-0.82434-2.2197-1.1461zm-15.841-8.245c-2.4417 0-4.4211 1.9794-4.4211 4.4211s1.9794 4.4211 4.4211 4.4211 4.4211-1.9794 4.4211-4.4211-1.9794-4.4211-4.4211-4.4211z" stroke-width=".2" fill="#f0ffff"/></svg>
