<?xml version="1.0" encoding="UTF-8" standalone="no"?>
<svg xmlns:rdf="http://www.w3.org/1999/02/22-rdf-syntax-ns#" xmlns="http://www.w3.org/2000/svg" xml:space="preserve" height="48" width="48" version="1.1" enable-background="new 0 0 76.01 76.01" xmlns:cc="http://creativecommons.org/ns#" xmlns:dc="http://purl.org/dc/elements/1.1/" viewBox="0 0 47.999623 47.999623"><path stroke-linejoin="round" d="m40.42 27.158c4.1858 0 7.579 3.0162 7.579 6.7368 0 0.5816-0.08285 1.1459-0.23883 1.6842l-7.34 11.789-7.34-11.789c-0.15585-0.53828-0.23883-1.1026-0.23883-1.6842 0-3.7206 3.3932-6.7368 7.5789-6.7368zm0 4.6316c-1.1627 0-2.1053 0.94256-2.1053 2.1053s0.94256 2.1053 2.1053 2.1053c1.1628 0 2.1053-0.94256 2.1053-2.1053s-0.94243-2.1053-2.1053-2.1053zm-34.104 14.316v-22.737l-2.5262 2.5263-3.7898-6.316 24-18.948 8.842 6.9811v-4.7701l5.0525-0.94736v9.7063l10.105 7.9778-3.542 5.9034-0.98954-0.32989-1.7841-1.7841v1.4379l-1.264-0.06959c-0.87196 0-1.7183 0.09813-2.5256 0.28278v-4.1774l-13.894-11.474-13.895 11.474v21.474h7.5789v-13.894h12.632v5.4017 8.4928h4.2718l2.3594 3.7894h-30.631z" stroke-width=".2" fill="#f0ffff"/></svg>
