<?xml version="1.0" encoding="UTF-8" standalone="no"?>
<svg xmlns:rdf="http://www.w3.org/1999/02/22-rdf-syntax-ns#" xmlns="http://www.w3.org/2000/svg" xml:space="preserve" height="48" viewBox="0 0 48 48" width="48" version="1.1" xmlns:cc="http://creativecommons.org/ns#" xmlns:dc="http://purl.org/dc/elements/1.1/" enable-background="new 0 0 76.00 76.00"><path stroke-linejoin="round" stroke-width=".2" d="m24 13.5c4.375 0 6.25 2.4999 5.619 7.7474 0.56368 0.32334 0.94348 0.93107 0.94348 1.6276 0 0.85225-0.56861 1.5717-1.3472 1.7997-0.32523 1.1592-0.83037 2.1855-1.4654 3.0064v3.9439c2.0834 0.41665 3.7501 0.62498 6.25 1.875 2.5 1.25 3.3334 2.3958 5 4.0625v5.9374h-30l-0.000095-5.9374c1.6667-1.6667 2.5-2.8126 5-4.0625 2.5-1.2501 4.1667-1.4584 6.2501-1.875v-3.9439c-0.63502-0.8209-1.1402-1.8472-1.4654-3.0065-0.77855-0.22794-1.3472-0.94737-1.3472-1.7996 0-0.69651 0.3797-1.3042 0.94348-1.6276-0.63095-5.2475 1.244-7.7474 5.619-7.7474zm-11.5 18.875c-2.0725 1.0362-1.8746 0.87584-3.0806 2.125h-9.4194v-5.937c1.6666-1.6667 2.5-2.8126 4.9999-4.0625 2.5-1.2501 4.1667-1.4584 6.2501-1.875v-3.9439c-0.635-0.822-1.14-1.848-1.4654-3.007-0.7785-0.228-1.3471-0.948-1.3471-1.8 0-0.69651 0.3798-1.3042 0.94348-1.6276-0.63095-5.2474 1.244-7.7474 5.619-7.7474 4.1035 0 6.0076 3.3244 5.7075 7.9273-2.7075 1.0727-4.2076 2.5727-4.2016 6.9451-0.56368 0.32334-0.94339 0.93117-0.94339 1.6276 0 0.85225 0.19355 1.9467 0.9721 2.1747 0.32523 1.1593 0.83037 2.1856 1.4654 3.0065v4.3189c-2.0834 0.41665-3 0.62498-5.5 1.875zm23 0c-2.5-1.2501-3.4167-1.4584-5.5-1.875v-4.3189c0.63502-0.8209 1.1402-1.8472 1.4654-3.0065 0.77855-0.22794 0.9721-1.3224 0.9721-2.1747 0-0.69641-0.37971-1.3042-0.94339-1.6276 0.006-4.3724-1.4941-5.8724-4.2016-6.9451-0.30022-4.603 1.604-7.9273 5.7075-7.9273 4.375 0 6.25 2.4999 5.619 7.7474 0.56368 0.32334 0.94348 0.93108 0.94348 1.6276 0 0.85225-0.56861 1.5717-1.3472 1.7996-0.32523 1.1593-0.83037 2.1856-1.4654 3.0065v3.9439c2.0834 0.41665 3.75 0.62498 6.25 1.875s3.3334 2.3958 5 4.0625v5.9374h-9.4194c-1.206-1.2491-1.0081-1.0887-3.0806-2.125z" fill="#f0ffff"/></svg>
