<?xml version="1.0" encoding="UTF-8" standalone="no"?>
<svg xmlns:rdf="http://www.w3.org/1999/02/22-rdf-syntax-ns#" xmlns="http://www.w3.org/2000/svg" xml:space="preserve" height="48" width="48" version="1.1" enable-background="new 0 0 76.00 76.00" xmlns:cc="http://creativecommons.org/ns#" xmlns:dc="http://purl.org/dc/elements/1.1/" viewBox="0 0 48 48"><path stroke-linejoin="round" d="m0 12.766h6.6626l2.1885-6.1277 2.1884 6.1277h6.6626l-5.5486 3.9752 2.4848 6.2376-5.7872-3.4042-5.1064 3.4042 1.3617-4.3501v-0.74278l0.18986 0.13634 0.3711-1.188-5.6681-4.068zm44.936 0.000102c1.692 0 3.064 1.372 3.064 3.064v22.468c0 1.6921-1.3718 3.0638-3.0638 3.0638h-36.766c-1.6922 0-3.0638-1.3718-3.0638-3.0638v-13.816l3.9149-2.6099 7.7718 4.1702h-6.5803v2.0426h22.468v-2.0426h-15.114l-1.4212-4.0851h23.684v-2.0426h-24.395l-0.85195-2.449 6.3406-4.6998h24.012zm-34.723 19.404v2.0426h29.617v-2.0426h-29.617z" stroke-width=".2" fill="#f0ffff"/></svg>
