<?xml version="1.0" encoding="UTF-8" standalone="no"?>
<svg xmlns:rdf="http://www.w3.org/1999/02/22-rdf-syntax-ns#" xmlns="http://www.w3.org/2000/svg" xml:space="preserve" height="48" width="48" version="1.1" enable-background="new 0 0 76.00 76.00" xmlns:cc="http://creativecommons.org/ns#" xmlns:dc="http://purl.org/dc/elements/1.1/" viewBox="0 0 48 48"><path stroke-linejoin="round" d="m29.898 0c9.998 0 18.102 8.1043 18.102 18.102 0 9.9972-8.1043 18.101-18.102 18.101-3.4239 0-6.6259-0.95069-9.4128-2.5449l-13.069 13.07c-1.6966 1.6965-4.4473 1.6965-6.1439 0-1.6965-1.6966-1.6965-4.4473 0-6.1439l13.127-13.126c-1.651-2.731-2.602-5.933-2.602-9.356 0-9.9977 8.104-18.102 18.101-18.102zm0 5.7925c-6.7981 0-12.309 5.511-12.309 12.309 0 6.7981 5.511 12.309 12.309 12.309 6.7981 0 12.309-5.511 12.309-12.309 0-6.7981-5.511-12.309-12.309-12.309z" stroke-width=".2" fill="#f0ffff"/></svg>
