<?xml version="1.0" encoding="UTF-8" standalone="no"?>
<svg xmlns:rdf="http://www.w3.org/1999/02/22-rdf-syntax-ns#" xmlns="http://www.w3.org/2000/svg" xml:space="preserve" height="48" width="48" version="1.1" enable-background="new 0 0 76.00 76.00" xmlns:cc="http://creativecommons.org/ns#" xmlns:dc="http://purl.org/dc/elements/1.1/" viewBox="0 0 48.000001 48.000001"><path stroke-linejoin="round" d="m3 0h42v48h-42v-48zm8.7499 6v16h24.5v-16h-24.5zm0 20v16h24.5v-16h-24.5zm-4.375-22c-1.4498 0-2.625 1.3431-2.625 3s1.1752 3 2.625 3 2.625-1.3431 2.625-3-1.1752-3-2.625-3zm0 34c-1.4498 0-2.625 1.3431-2.625 3 0 1.6568 1.1752 3 2.625 3s2.625-1.3432 2.625-3c0-1.6569-1.1752-3-2.625-3zm0-8.5c-1.4498 0-2.625 1.3431-2.625 3s1.1752 3 2.625 3 2.625-1.3431 2.625-3-1.1752-3-2.625-3zm0-8.5c-1.4498 0-2.625 1.3432-2.625 3 0 1.6569 1.1752 3 2.625 3s2.625-1.3431 2.625-3c0-1.6568-1.1752-3-2.625-3zm0-8.4999c-1.4498 0-2.625 1.3431-2.625 3s1.1752 3 2.625 3 2.625-1.3431 2.625-3-1.1752-3-2.625-3zm33.25-8.5c-1.4498 0-2.625 1.3431-2.625 3s1.1752 3 2.625 3 2.625-1.3431 2.625-3-1.1752-3-2.625-3zm0.000111 34c-1.4498 0-2.625 1.3432-2.625 3 0 1.6569 1.1752 3 2.625 3 1.4497 0 2.625-1.3431 2.625-3 0-1.6568-1.1753-3-2.625-3zm0-8.4999c-1.4498 0-2.625 1.3431-2.625 3 0 1.6568 1.1752 3 2.625 3 1.4497 0 2.625-1.3432 2.625-3 0-1.6569-1.1753-3-2.625-3zm0-8.5c-1.4498 0-2.625 1.3431-2.625 3s1.1752 3 2.625 3c1.4497 0 2.625-1.3431 2.625-3s-1.1753-3-2.625-3zm0-8.5c-1.4498 0-2.625 1.3432-2.625 3 0 1.6569 1.1752 3 2.625 3 1.4497 0 2.625-1.3431 2.625-3 0-1.6568-1.1753-3-2.625-3z" stroke-width=".2" fill="#f0ffff"/></svg>
