<?xml version="1.0" encoding="UTF-8" standalone="no"?>
<svg xmlns:rdf="http://www.w3.org/1999/02/22-rdf-syntax-ns#" xmlns="http://www.w3.org/2000/svg" version="1.1" xml:space="preserve" viewBox="0 0 48 48" height="48" width="48" enable-background="new 0 0 76.00 76.00" xmlns:cc="http://creativecommons.org/ns#" xmlns:dc="http://purl.org/dc/elements/1.1/"><path stroke-linejoin="round" d="m24 0c7 0 10 4 8.99 12.396 0.902 0.517 1.51 1.49 1.51 2.604 0 1.3636-0.90973 2.5147-2.1555 2.8795-0.52042 1.8548-1.3286 3.4968-2.3445 4.8104v6.3101c3.3333 0.6667 6 1 10 3 3.9999 2.0001 5.3333 3.8334 8 6.5001v9.5h-48v-9.5c2.6667-2.6667 4-4.5 8-6.5001 4-2 6.667-2.333 10-3v-6.3101c-1.016-1.314-1.824-2.956-2.345-4.811-1.245-0.364-2.155-1.515-2.155-2.879 0-1.1144 0.60758-2.0869 1.5096-2.6041-1.01-8.396 1.99-12.396 8.99-12.396z" stroke-width=".2" fill="#f0ffff"/></svg>
