<?xml version="1.0" encoding="UTF-8" standalone="no"?>
<svg xmlns:rdf="http://www.w3.org/1999/02/22-rdf-syntax-ns#" xmlns="http://www.w3.org/2000/svg" xml:space="preserve" height="48" width="48" version="1.1" enable-background="new 0 0 76.00 76.00" xmlns:cc="http://creativecommons.org/ns#" xmlns:dc="http://purl.org/dc/elements/1.1/" viewBox="0 0 48 48"><path fill="#f0ffff" d="m17.255 41.726 17.157-17.157c2.2742-2.2742 2.2742-5.9613 0-8.2355s-5.9613-2.2742-8.2355 0.000122l-13.726 13.726 2.7451 2.7452 13.726-13.726c0.75802-0.75814 1.9871-0.75814 2.7451 0 0.75814 0.75802 0.07184 1.3008-0.68618 2.0589l-17.157 17.157c-1.8952 1.8951-4.2816 2.5814-6.1767 0.6863s-1.8951-4.9678 0-6.8629l21.276-21.275c3.0322-3.0322 7.9485-3.0322 10.981 0 3.0322 3.0322 3.0322 7.9485 0 10.981l-16.471 16.471 4.1177 4.1178 16.471-16.471c5.3064-5.3065 5.3064-13.91 0-19.216-5.3064-5.3064-13.91-5.3064-19.216 0l-21.962 21.96c-3.7903 3.7903-3.7903 9.9356 0 13.726 3.7902 3.7902 9.9355 3.7902 13.726 0l0.65246-0.72014 0.03384 0.03383z"/></svg>
