<?xml version="1.0" encoding="UTF-8" standalone="no"?>
<svg xmlns:rdf="http://www.w3.org/1999/02/22-rdf-syntax-ns#" xmlns="http://www.w3.org/2000/svg" xml:space="preserve" height="48" width="48" version="1.1" enable-background="new 0 0 76.00 76.00" xmlns:cc="http://creativecommons.org/ns#" xmlns:dc="http://purl.org/dc/elements/1.1/" viewBox="0 0 48.000001 48.000001"><path stroke-linejoin="round" d="m33.248 5.7839c2.9616 0 5.3626 2.4009 5.3626 5.3625 0 2.9617-2.4009 5.3626-5.3626 5.3626-2.9616 0-5.3626-2.4009-5.3626-5.3626 0-2.9616 2.4009-5.3625 5.3626-5.3625zm4.2901 12.87s10.725-1.0725 10.457 20.914l-3.4857 0.8044s-0.53626-8.0439-2.6813-12.334v13.406s-3.7538 1.8094-8.0439 1.8432c-4.2901 0.034-8.312-1.8432-8.312-1.8432v-13.406c-2.145 4.29-2.6813 12.334-2.6813 12.334l-3.4857-0.8044c-0.26813-21.987 10.457-20.914 10.457-20.914h7.7757zm-26.813-8.5801c0-2.8136 2.549-5.3625 5.3626-5.3625h6.4351c1.9499 0 3.7727 1.2242 4.708 2.9123-0.60651 1.0337-0.95422 2.2376-0.95422 3.5227 0 2.2221 1.0396 4.2013 2.659 5.4779-1.6207 0.2811-3.0187 0.9417-4.2246 1.8673-1.2566-1.2267-2.9747-1.9826-4.8694-1.9826-3.8502 0-6.9713 3.1212-6.9713 6.9714 0 3.3405 2.3496 6.1323 5.4863 6.8128-0.48564 2.0571-0.77543 3.9953-0.94789 5.5212h-12.046c-2.9621 0-5.363-2.401-5.363-5.362v-15.015c3.9033e-8 -2.962 2.4009-5.363 5.3626-5.363l5.3626-0.0001zm-4.8263 3.2176c-0.88847 0-1.6088 0.9604-1.6088 2.145 0 1.1847 0.7203 2.145 1.6088 2.145 0.88847 0 1.6088-0.9603 1.6088-2.145 0-1.1846-0.7203-2.145-1.6088-2.145z" stroke-width=".2" fill="#f0ffff"/></svg>
