<?xml version="1.0" encoding="UTF-8" standalone="no"?>
<svg xmlns:rdf="http://www.w3.org/1999/02/22-rdf-syntax-ns#" xmlns="http://www.w3.org/2000/svg" xml:space="preserve" height="48" width="48" version="1.1" enable-background="new 0 0 76.00 76.00" xmlns:cc="http://creativecommons.org/ns#" xmlns:dc="http://purl.org/dc/elements/1.1/" viewBox="0 0 48 48"><path stroke-linejoin="round" d="m29.647-0.000141h8.4706v8.4706h-8.4706v-8.4706zm-0.000141 9.8825h8.4705v8.4706h-8.4705v-8.4706zm9.8822-9.8822h8.4706v8.4705h-8.4706v-8.4705zm0 9.8822h8.4706v8.4706h-8.4706v-8.4706zm-29.647-9.8823h8.4706v8.4705h-8.4706v-8.4705zm0 9.8822h8.4706v8.4706h-8.4706v-8.4706zm9.8828-9.8823h8.4706v8.4706h-8.4706v-8.4706zm0 9.8824h8.4706v8.4705h-8.4706v-8.4705zm9.8824 9.8824h8.4706v8.4706h-8.4706v-8.4706zm-19.765 0h8.4706v8.4706h-8.4706v-8.4706zm-0.000141 9.8824h8.4706v8.4706h-8.4706v-8.4706zm0.000141 9.8824h8.4706v8.4705h-8.4706v-8.4705zm9.8824-19.765h8.4705v8.4706h-8.4705v-8.4706zm0 9.8824h8.4705v8.4706h-8.4705v-8.4706zm-19.764-29.646h8.4705v8.4705h-8.4705v-8.4705zm0 9.8822h8.4705v8.4706h-8.4705v-8.4706zm0 9.8824h8.4706v8.4706h-8.4706v-8.4706zm0 9.8824h8.4706v8.4706h-8.4706v-8.4706zm0 9.8824h8.4706v8.4705h-8.4706v-8.47zm19.765 0h8.4706v8.4705h-8.4706v-8.4705zm1.4118 1.4118v5.6471h5.6471v-5.6471h-5.6471zm18.353-21.177h8.4706v8.4706h-8.4706v-8.4706zm1.4118 1.4118v5.6471h5.6471v-5.6471h-5.6471zm-11.294 8.4706h8.4706v8.4706h-8.4706v-8.4706zm1.4118 1.4118v5.6471h5.6471v-5.6471h-5.6471zm8.4706-1.4118h8.4706v8.4706h-8.4706v-8.4706zm1.4118 1.4118v5.6471h5.6471v-5.6471h-5.6471zm-11.294 8.4706h8.4706v8.4705h-8.4706v-8.4705zm1.4118 1.4118v5.6471h5.6471v-5.6471h-5.6471zm8.4706-1.4118h8.4706l-0.003 8.47h-8.4706v-8.4705zm1.4118 1.4118v5.6471h5.6471v-5.6471h-5.6471zm-39.532-39.53v5.6471h5.6471v-5.6471h-5.6471zm19.765 9.8824v5.6471h5.6471v-5.6471h-5.6471zm-9.8824 0v5.6471h5.6471v-5.6471h-5.6471zm-9.8824 9.8822v5.6471h5.6471v-5.6471h-5.6471zm0-9.8822v5.6471h5.6471v-5.6471h-5.6471zm29.647 0v5.6471h5.6471v-5.6471h-5.6471zm9.8824 0v5.6471h5.6471v-5.6471h-5.6471zm-29.647-9.8824v5.6471h5.6471v-5.6471h-5.6471zm9.8824 0v5.6471h5.6471v-5.6471h-5.6471zm-9.8824 19.765v5.6471h5.6471v-5.6471h-5.6471zm-9.8824 9.8824v5.6471h5.6471v-5.6471h-5.6471zm9.8824 0v5.6471h5.6471v-5.6471h-5.6471zm9.8824 0v5.6471h5.6471v-5.6471h-5.6471zm-19.765 9.8824v5.6471h5.6471v-5.6471h-5.6471zm9.8824 0v5.6471h5.6471v-5.6471h-5.6471zm19.765-39.53v5.6471h5.6471v-5.6471h-5.6471zm9.8824 0v5.6471h5.6471v-5.6471h-5.6471zm-9.8824 19.765v5.6471h5.6471v-5.6471h-5.6471zm-9.8824 0v5.6471h5.6471v-5.6471h-5.6471z" stroke-width=".2" fill="#f0ffff"/></svg>
