<?xml version="1.0" encoding="UTF-8" standalone="no"?>
<svg xmlns:rdf="http://www.w3.org/1999/02/22-rdf-syntax-ns#" xmlns="http://www.w3.org/2000/svg" xml:space="preserve" height="48" width="48" version="1.1" enable-background="new 0 0 76.00 76.00" xmlns:cc="http://creativecommons.org/ns#" xmlns:dc="http://purl.org/dc/elements/1.1/" viewBox="0 0 48 48"><path stroke-linejoin="round" d="m26.147 44.742v-5.1633c3.0339-0.5203 5.3122-1.6227 6.8348-3.3072s2.2843-3.6867 2.2852-6.0065c0.0302-2.3104-0.6089-4.2327-1.9174-5.767-1.3084-1.5342-3.4674-2.8279-6.477-3.881-2.2382-0.7751-3.8526-1.4957-4.843-2.1618s-1.4758-1.3995-1.456-2.2003c-0.0236-0.7506 0.2925-1.4179 0.9483-2.002 0.6559-0.5841 1.7932-0.8922 3.4121-0.9243 1.9772 0.0364 3.5749 0.259 4.7929 0.6677 1.218 0.4088 2.1289 0.7853 2.7326 1.1296l1.4779-5.7441c-0.8295-0.4174-1.8384-0.7843-3.0266-1.1005-1.1882-0.3163-2.6135-0.506-4.276-0.5693v-4.4534h-4.9657v4.8076c-2.8 0.5354-4.9359 1.6024-6.4078 3.2009-1.4718 1.5985-2.2133 3.5519-2.2243 5.8602 0.039 2.4537 0.86 4.4103 2.463 5.8697 1.6029 1.4593 3.7537 2.6333 6.4522 3.5217 1.8991 0.6255 3.3359 1.2862 4.3105 1.9822 0.9745 0.6961 1.4637 1.5236 1.4676 2.4826-0.0365 1.0082-0.5489 1.7887-1.5371 2.3414-0.9883 0.5528-2.2335 0.8329-3.7356 0.8404-1.6414-0.0203-3.1637-0.2491-4.5668-0.6864-1.4032-0.4373-2.627-0.9612-3.6715-1.5716l-1.4864 5.9169c0.8918 0.541 2.0845 1.013 3.5782 1.4162 1.4936 0.4031 3.1045 0.6495 4.8324 0.7393v4.7623h5.0035z" stroke-width=".2" fill="#f0ffff"/></svg>
