<?xml version="1.0" encoding="UTF-8" standalone="no"?>
<svg xmlns:rdf="http://www.w3.org/1999/02/22-rdf-syntax-ns#" xmlns="http://www.w3.org/2000/svg" xml:space="preserve" height="48" width="48" version="1.1" enable-background="new 0 0 76.00 76.00" xmlns:cc="http://creativecommons.org/ns#" xmlns:dc="http://purl.org/dc/elements/1.1/" viewBox="0 0 48 48.000001"><path stroke-linejoin="round" d="m40.11 0.43747c2.0519-0.4737 4.0993 0.80555 4.573 2.8575l2.1444 9.2883-44.584 10.293-2.1444-9.288c-0.4737-2.0519 0.80567-4.0994 2.8575-4.5731l37.154-8.5774zm-37.296 16.437 0.8577 3.716 7.1439-11.433-3.7153 0.858-4.2863 6.859zm6.4307 2.429 3.7149-0.858 7.144-11.432-3.715 0.8576-7.1439 11.432zm9.2883-2.1443 3.7153-0.85781 7.1439-11.433-3.7153 0.85769-7.1439 11.433zm9.2883-2.1444 3.7153-0.85781 7.1439-11.433-3.7153 0.85769-7.1439 11.433zm9.2881-2.1444 3.7153-0.85769 2.8576-4.5731-0.85769-3.7153-5.7152 9.1461zm7.0773 34.791h-38.131c-2.106 0-3.8131-1.7072-3.8131-3.8131v-20.972h45.757l0.001 20.971c0 2.1059-1.7071 3.8131-3.8129 3.8131zm-28.597-22.879l-7.626 7.626h3.8131l7.626-7.626h-3.8131zm9.5326 0-7.626 7.626h3.8129l7.626-7.626h-3.8129zm9.5326 0-7.6261 7.626h3.8131l7.626-7.626h-3.8129zm9.5325 0-7.626 7.626h3.8129l5.7092-5.709 0.01048-1.9169h-1.9066zm-38.13 0-1.9066 1.9065v3.8131l5.7195-5.7195h-3.8129z" stroke-width=".2" fill="#f0ffff"/></svg>
