<?xml version="1.0" encoding="UTF-8" standalone="no"?>
<svg xmlns:rdf="http://www.w3.org/1999/02/22-rdf-syntax-ns#" xmlns="http://www.w3.org/2000/svg" xml:space="preserve" height="48" width="48" version="1.1" enable-background="new 0 0 76.00 76.00" xmlns:cc="http://creativecommons.org/ns#" xmlns:dc="http://purl.org/dc/elements/1.1/" viewBox="0 0 48 48"><path stroke-linejoin="round" d="m24 3.6922c5.8192 0 11.067 2.4477 14.769 6.3695v-10.062l5.5384 5.5385 0.000116 14.769h-14.769l-5.538-5.539h10.32c-2.535-2.832-6.219-4.615-10.32-4.615-7.021 0-12.822 5.2258-13.724 12h-6.5008c0.9326-10.351 9.6318-18.462 20.225-18.462zm0 34.154c7.021 0 12.822-5.2258 13.724-12h6.5009c-0.933 10.351-9.632 18.462-20.225 18.462-5.8192 0-11.067-2.4477-14.769-6.3695v10.062l-5.5385-5.5385v-14.769h14.769l5.5385 5.5385h-10.321c2.536 2.833 6.22 4.616 10.321 4.616z" stroke-width=".2" fill="#f0ffff"/></svg>
