<?xml version="1.0" encoding="UTF-8" standalone="no"?>
<svg xmlns:rdf="http://www.w3.org/1999/02/22-rdf-syntax-ns#" xmlns="http://www.w3.org/2000/svg" version="1.1" xml:space="preserve" viewBox="0 0 48 48" height="48" width="48" enable-background="new 0 0 76.00 76.00" xmlns:cc="http://creativecommons.org/ns#" xmlns:dc="http://purl.org/dc/elements/1.1/"><path stroke-linejoin="round" d="m26.465 7.4326c9.4258 0 17.586 3.0399 21.535 7.4675v5.4751c-2.8869-4.2637-10.662-7.3176-19.8-7.3176-11.598 0-21 4.9193-21 10.988 0 3.9315 3.9465 7.3807 9.8797 9.3223-8.628-2.052-14.68-6.847-14.68-12.435 0-7.456 10.774-13.5 24.065-13.5zm-3.73 33.134c-9.426 0-17.586-3.04-21.535-7.467l-1.2-5.475c2.8869 4.2636 11.862 7.3175 21 7.3175 11.598 0 21-4.9192 21-10.988 0-3.9314-3.9465-7.3807-9.8797-9.3223 8.628 2.052 14.68 6.847 14.68 12.435 0 7.4559-10.774 13.5-24.065 13.5z" stroke-width=".2" fill="#f0ffff"/></svg>
