<?xml version="1.0" encoding="UTF-8" standalone="no"?>
<svg xmlns:rdf="http://www.w3.org/1999/02/22-rdf-syntax-ns#" xmlns="http://www.w3.org/2000/svg" xml:space="preserve" height="48" width="48" version="1.1" enable-background="new 0 0 76.00 76.00" xmlns:cc="http://creativecommons.org/ns#" xmlns:dc="http://purl.org/dc/elements/1.1/" viewBox="0 0 48 48"><path stroke-linejoin="round" d="m39.068 42.927c0.13351 0.31482 0.20032 0.6343 0.20032 0.95868 0 0.44832-0.11928 0.86692-0.35773 1.2557-0.23845 0.38874-0.57239 0.6856-1.0016 0.8907l-2.0176 0.94446c-0.78705 0.35773-1.5753 0.61763-2.3646 0.77982-0.789 0.163-1.587 0.244-2.393 0.244-1.297 0-2.579-0.216-3.845-0.647-1.267-0.432-2.478-1.05-3.635-1.853-1.157-0.804-2.242-1.776-3.255-2.916-1.014-1.14-1.921-2.411-2.723-3.813-0.51-0.778-1.047-1.665-1.609-2.662-0.477-0.849-1.022-1.866-1.635-3.051-0.613-1.186-1.232-2.501-1.857-3.946-0.639-1.445-1.146-2.708-1.52-3.788-0.375-1.081-0.664-1.979-0.87-2.694-0.238-0.835-0.4025-1.55-0.4932-2.147-0.329-1.106-0.5711-2.207-0.7262-3.301-0.15496-1.0946-0.2325-2.1787-0.2325-3.2518 0-1.4022 0.14074-2.7521 0.42209-4.0495 0.28147-1.2973 0.71312-2.5041 1.295-3.6202 0.58195-1.1161 1.32-2.1142 2.2145-2.9942 0.89432-0.88009 1.952-1.5967 3.173-2.15l1.989-0.91568c0.314-0.13362 0.629-0.20032 0.944-0.20032 0.44354 0 0.85607 0.12278 1.2377 0.36845 0.38151 0.24556 0.66776 0.58545 0.85852 1.0195l3.8277 8.6927c0.13351 0.31482 0.20032 0.62964 0.20032 0.94446 0 0.46267-0.11928 0.8907-0.35773 1.2842-0.23845 0.39352-0.57472 0.68805-1.0088 0.88406l-3.935 1.8096c-0.51992 0.23856-0.91822 0.58906-1.1948 1.0517-0.27669 0.46267-0.41498 0.96113-0.41498 1.4954 0 0.40542 0.07626 0.78693 0.22888 1.1447l6.4607 14.753c0.25279 0.56761 0.60212 0.98503 1.0481 1.252 0.44599 0.26713 0.93128 0.40075 1.456 0.40075 0.35773 0 0.72257-0.08115 1.0946-0.24334l3.935-1.8101c0.31004-0.13351 0.62252-0.20032 0.93734-0.20032 0.43398 0 0.84418 0.12278 1.2306 0.36845 0.38629 0.24568 0.67721 0.58311 0.87275 1.0124l3.8206 8.6999z" stroke-width=".2" fill="#f0ffff"/></svg>
