<?xml version="1.0" encoding="UTF-8" standalone="no"?>
<svg xmlns:rdf="http://www.w3.org/1999/02/22-rdf-syntax-ns#" xmlns="http://www.w3.org/2000/svg" xml:space="preserve" height="48" width="48" version="1.1" enable-background="new 0 0 76.00 76.00" xmlns:cc="http://creativecommons.org/ns#" xmlns:dc="http://purl.org/dc/elements/1.1/" viewBox="0 0 48 48"><path stroke-linejoin="round" d="m39 27.333c0 9.205-7.462 16.667-16.667 16.667-9.204 0-16.666-7.462-16.666-16.667 0-8.6423 6.5778-15.748 15-16.584v-1.7489h-5v-5h13.333v5h-5v1.7489c3.3521 0.33284 6.412 1.6588 8.8813 3.6795l1.2025-1.2025-2.3571-2.3571 3.5356-3.5355 7.0711 7.0711-3.5356 3.5355-2.3569-2.3569-1.2025 1.2025c2.3512 2.8731 3.7617 6.5458 3.7617 10.548zm-29.057-1.6666h4.0565v3.3333h-4.0565c0.74221 5.5704 5.1528 9.9811 10.723 10.723v-4.0566h3.3334v4.0565c5.571-0.741 9.982-5.152 10.724-10.722h-4.0565v-3.3333h4.0565c-0.74221-5.5704-5.1528-9.981-10.723-10.723v4.0564h-3.3334v-4.0565c-5.571 0.742-9.981 5.152-10.724 10.723zm12.39-1.666c1.8409 0 3.3333 1.4924 3.3333 3.3334 0 1.8409-1.4923 3.3334-3.3333 3.3334l-6.6667 5 3.3334-8.3334c0-1.842 1.492-3.334 3.333-3.334z" stroke-width=".2" fill="#f0ffff"/></svg>
