<?xml version="1.0" encoding="UTF-8" standalone="no"?>
<svg xmlns:rdf="http://www.w3.org/1999/02/22-rdf-syntax-ns#" xmlns="http://www.w3.org/2000/svg" height="128" width="256" version="1.1" xmlns:cc="http://creativecommons.org/ns#" xmlns:dc="http://purl.org/dc/elements/1.1/" viewBox="0 0 256 128">
<g transform="translate(0 -924.36)">
<path fill="#f0ffff" d="m30.592 1051.3c-1.9846-0.9511-2.2268-1.1661-2.5044-2.223-0.87038-3.3135-1.0154-7.8362-0.80439-25.086 0.21945-17.94 0.08614-21.259-0.95388-23.748-0.56816-1.3598-0.82078-1.0156-1.5647 2.1314-0.70817 2.9958-0.70739 13.114 0.0013 22.23 0.78275 10.062 0.90558 13.851 0.56167 17.324-0.5165 5.2159-1.4985 7.6295-3.7205 9.144-0.94619 0.6449-1.3279 0.712-3.3993 0.5971-1.6538-0.092-2.7701-0.3459-3.8328-0.8725l-1.4993-0.7431-0.35643-2.1464c-1.1455-6.8992-1.3486-19.157-0.91935-55.498l0.25714-21.77-0.64442 0.91986c-2.0155 2.877-2.8185 8.7028-2.7046 19.624 0.07631 7.3217-0.19247 9.9-1.2626 12.112l-0.5193 1.0731-2.6963-0.048c-1.483-0.026-2.7506-0.1019-2.8169-0.1682-0.06633-0.066-0.36069-1.4247-0.65413-3.0186-0.66963-3.6372-0.75861-15.386-0.15314-20.222 1.3576-10.78 3.6212-17.54 7.0373-20.96 4.0286-4.0286 11.621-5.8982 20.665-5.0889 6.4814 0.58 15.006 2.6175 15.619 3.7332 0.94878 1.726 4.9189 10.955 5.4393 12.644 2.638 8.5635 3.2718 24.112 1.2828 31.465l-0.36254 1.3403-1.8946-0.208c-1.042-0.1144-2.481-0.4883-3.1977-0.831l-1.3031-0.6231-0.04619-2.6556c-0.0254-1.4606-0.01429-5.0702 0.02472-8.0214 0.12195-9.2282-0.73936-15.997-2.5385-19.949l-0.75945-1.6682 0.04993 35.261c0.05974 42.189 0.05893 42.202-2.7785 44.983-2.4679 2.4189-3.76 2.6077-7.0514 1.0303zm18.619-5.5737c-4.947-0.7354-4.4902-0.4804-5.0354-2.8116-0.89832-3.8411-1.2089-11.972-0.95518-25.009l0.23773-12.217 3.8221 0.2204c2.1021 0.1213 4.0424 0.2377 4.3118 0.2588 0.58912 0.046 1.0241-1.2966 1.7935-5.536 0.69235-3.8147 0.79224-15.901 0.16807-20.335-1.0382-7.376-2.7742-13.757-4.992-18.349-0.67952-1.407-1.1449-2.6488-1.0341-2.7596 0.38917-0.38928 18.006-0.21911 19.353 0.18693 1.7191 0.51828 5.6023 2.7991 6.0922 3.5783 0.60696 0.96538 3.1417 8.7645 4.1917 12.897 2.887 11.364 3.1265 20.242 0.68087 25.241l-0.81094 1.6575-1.5983-0.1326c-0.99412-0.082-1.9644-0.3932-2.5668-0.8221l-0.96842-0.6896-0.002-8.7944c-0.001-4.837-0.14066-9.6468-0.30974-10.689-0.42733-2.633-1.411-5.6259-2.1489-6.5379l-0.62017-0.76655 0.04212 32.502c0.04441 34.295 0.03151 34.644-1.3534 36.678-1.2929 1.8989-2.1145 2.2639-5.0609 2.2481-3.5334-0.019-3.8573-0.2305-4.5494-2.9726-0.51544-2.0427-0.56164-3.8392-0.56164-21.849 0-15.133-0.09041-19.922-0.39509-20.927-0.2173-0.71674-0.51784-1.3032-0.66787-1.3032-0.15002 0-0.56776 0.78844-0.92831 1.752-1.1789 3.1508-1.2464 8.3898-0.30534 23.697 0.59175 9.6263 0.11124 15.726-1.5414 19.568-1.0227 2.3772-1.221 2.4704-4.2874 2.0145zm25.842-5.3455c-2.1604-0.6975-2.2403-0.8437-2.8721-5.2515-0.4146-2.8926-0.73223-22.102-0.44221-26.744l0.22235-3.5586h2.2997c2.5145 0 3.6817-0.402 5.2035-1.7919 0.82598-0.7544 0.9958-1.2017 1.3658-3.5976 0.59884-3.8781 0.52023-13.164-0.14905-17.607-0.92539-6.144-2.7722-12.844-4.9228-17.861l-0.49296-1.1498 3.3003 0.0149c1.8152 0.008 6.3411 0.12751 10.058 0.26519 8.9355 0.33101 8.8272 0.27477 10.832 5.6224 4.5762 12.204 5.934 23.499 3.6959 30.745l-0.61351 1.9863h-1.5974c-1.002-0.0009-1.9403-0.2099-2.5173-0.5603l-0.91986-0.5587-0.008-8.715c-0.008-9.3151-0.19214-10.887-1.7402-14.872l-0.70507-1.8152-0.17842 2.6063c-0.0981 1.4334-0.11509 13.369-0.0377 26.523 0.13913 23.645-0.006 29.073-0.89834 33.646-0.18867 0.9667-0.49803 1.8809-0.68746 2.0314-0.18944 0.1505-1.5862 0.406-3.104 0.5677-3.2035 0.3413-3.7991 0.1183-4.7703-1.7853-0.57048-1.1182-0.59558-1.9579-0.59558-19.924 0-18.466-0.01-18.773-0.63825-19.789-0.35104-0.56798-0.75965-1.0327-0.90804-1.0327-0.4229 0-0.95448 2.348-1.2148 5.3658-0.13092 1.5178-0.16434 8.5547-0.0743 15.638 0.11508 9.0506 0.0539 13.835-0.20573 16.098-0.36516 3.1819-0.38447 3.2347-1.6537 4.5162-1.5833 1.5987-2.5525 1.7892-5.0308 0.989zm25.145-7.8656c-1.3437-0.3962-1.6476-0.6239-1.9106-1.4317-0.95297-2.9272-1.4185-12.018-1.0973-21.428l0.22763-6.669h1.5758c2.2377 0 3.6987-0.4856 4.8982-1.6199 0.94556-0.8942 1.0771-1.238 1.4313-3.7419 0.5931-4.1927 0.23616-12.211-0.75448-16.949-0.8154-3.8998-2.5494-9.4756-3.5671-11.471-0.32193-0.6309-0.58533-1.2338-0.58533-1.3396 0-0.10585 3.8979-0.0935 8.662 0.0276 10.412 0.26442 10.515 0.29304 11.876 3.3042 2.1837 4.8292 4.1106 12.001 4.6508 17.31 0.38117 3.746 0.0824 7.2694-0.84805 10l-0.48218 1.4151-1.5809-0.01c-2.8648-0.0177-2.8038 0.15907-2.8315-8.2057-0.0184-5.5401-0.14011-7.7429-0.51191-9.2619-0.5952-2.4317-1.4183-4.4337-1.705-4.1469-0.1166 0.11661-0.212 11.135-0.212 24.486 0 21.873-0.0525 24.514-0.53041 26.695-0.29172 1.3317-0.56791 2.4588-0.61375 2.5046-0.0458 0.046-1.2189 0.2388-2.6068 0.4288-2.8842 0.3949-3.4529 0.225-4.3898-1.3115-0.56938-0.9338-0.5958-1.6742-0.59835-16.768l-0.003-15.791-0.71672-0.89573-0.71673-0.89574-0.42881 1.049c-0.34187 0.83633-0.44168 3.8412-0.49229 14.82-0.0375 8.1306-0.20128 14.659-0.39994 15.939-0.35451 2.2849-0.94058 3.2275-2.5164 4.0474-0.99526 0.5178-1.1795 0.5127-3.2228-0.09zm21.738-3.6751c-0.83374-0.2949-1.4214-0.7267-1.5891-1.1679-0.60986-1.604-0.92072-7.1512-0.92072-16.43v-9.8597l0.84321 0.1639c2.1091 0.4099 5.3324-0.9166 5.7202-2.3541 0.0966-0.35816 0.33708-2.2207 0.53436-4.1389 0.63779-6.2016-0.46165-14.664-2.7737-21.349-0.6416-1.855-1.2778-3.6325-1.4138-3.9499-0.23977-0.55946-0.0191-0.57013 7.2366-0.3497 7.8829 0.23948 8.6434 0.37926 9.6188 1.7682 0.71071 1.012 3.082 8.4629 3.8796 12.19 0.93671 4.3774 0.98587 11.276 0.0983 13.798-0.53594 1.5226-0.68856 1.6956-1.5706 1.781-0.53735 0.052-1.4112-0.12992-1.9419-0.40436l-0.96493-0.49899 0.21035-4.6549c0.12791-2.8303 0.0792-5.8096-0.12424-7.6007-0.34475-3.0353-1.4538-7.2358-1.8151-6.8745-0.11224 0.11225-0.2101 10.302-0.21746 22.643-0.0132 22.045-0.15904 25.78-1.0419 26.672-0.13438 0.1357-1.1659 0.3773-2.2923 0.5368-2.3876 0.3381-3.2957-0.044-3.8439-1.6161-0.21665-0.6215-0.33026-5.8412-0.33159-15.234-0.002-13.433-0.0363-14.341-0.5745-15.157l-0.57248-0.86829-0.42146 1.0216c-0.3329 0.80691-0.42557 3.6635-0.44101 13.593-0.0107 6.9143-0.13194 13.468-0.26931 14.563-0.21734 1.7327-0.3993 2.1408-1.4014 3.1429-1.2615 1.2615-1.6543 1.3305-3.6199 0.6353zm45.016-7.6651c-4.4484-0.099-13.02-0.6665-13.637-0.9036-0.40626-0.1559-0.46687-1.5839-0.46498-10.955 0.001-5.9266 0.0901-11.707 0.19765-12.845l0.19547-2.0697h36.444 36.444v13.011c0 12.123-0.0366 13.022-0.53659 13.178-1.7738 0.5531-41.982 0.9539-58.641 0.5846zm2.566-29.684c-1.034-0.22489-2.3245-0.63874-2.8678-0.91968-0.93894-0.48554-1.061-0.47928-2.4695 0.12664-2.0259 0.8715-2.855 0.85464-2.5801-0.0525 0.75241-2.4828 1.5816-3.7508 3.773-5.7701l2.319-2.1368 2.1665 2.1521c1.1916 1.1836 2.273 2.1521 2.4032 2.1521 0.3216 0-0.0814-2.1053-0.59867-3.1276-0.23042-0.45539-0.41924-0.93832-0.41959-1.0732-0.00031-0.13486 0.89651-0.19893 1.993-0.14238 1.0965 0.0565 1.9888 0.19453 1.9828 0.30662-0.006 0.1121-0.20806 0.54875-0.44906 0.97036-0.24101 0.4216-0.44309 1.4532-0.44907 2.2925l-0.0109 1.5259 2.3763-2.3468 2.3763-2.3468 1.4789 0.76146c1.332 0.68584 1.5972 1.011 2.6701 3.2738 0.6552 1.3818 1.274 2.864 1.3751 3.2937 0.18232 0.77503 0.16818 0.78125-1.7503 0.77033-1.0637-0.006-2.831 0.15871-3.9271 0.36616-2.5552 0.48357-6.9846 0.44782-9.3922-0.0758zm33.006 0.10718c-0.92551-0.15332-2.2865-0.57101-3.0243-0.92821l-1.3416-0.64945-1.3532 0.65743c-1.2122 0.58895-2.8699 0.88669-2.8699 0.51548 0-0.0781 0.28684-0.87146 0.63743-1.7631 0.80812-2.0552 1.6251-3.1229 3.8931-5.0876l1.8153-1.5727 2.3462 2.1619 2.3462 2.1619v-0.95767c0-0.52673-0.27876-1.5041-0.61947-2.172l-0.61947-1.2143h1.9993c1.0996 0 1.9944 0.10349 1.9884 0.22997s-0.20805 0.57491-0.44907 0.99652c-0.241 0.4216-0.44308 1.4532-0.44906 2.2925l-0.0109 1.5259 2.4034-2.3893 2.4034-2.3893 1.506 0.86781c1.2796 0.73732 1.6789 1.2129 2.6557 3.163 0.6323 1.2624 1.2304 2.7159 1.3292 3.2302l0.17951 0.93493-1.9424-0.0113c-1.0683-0.006-2.8392 0.15845-3.9354 0.3659-2.2665 0.42894-6.4003 0.44353-8.8883 0.0314zm-33.56-14.894-1.1152-3.3062 1.1614-1.0348c2.2328-1.9894 5.2455-2.7467 7.1312-1.7925 2.2512 1.1391 2.8446 4.5764 1.3123 7.6015l-0.8432 1.6647-3.2656 0.0867-3.2656 0.0867-1.1152-3.3062zm32.579-0.0833-1.1132-3.3694 1.1216-0.88251c1.8927-1.4891 3.5749-2.1906 5.2533-2.1906 1.3216 0 1.7096 0.14676 2.6347 0.99651 1.8439 1.6937 2.0155 4.0205 0.53149 7.2056l-0.75004 1.6098h-3.2824-3.2824l-1.1132-3.3694zm-72.749-11.671c-0.83426-0.14136-2.5166-0.75112-3.7385-1.355-2.1897-1.0822-2.2247-1.1184-2.4336-2.511-0.30504-2.0341 0.0456-5.3923 0.7222-6.9165 0.75078-1.6914 2.7792-3.5182 4.2031-3.7853 1.6237-0.30461 4.1286-0.0168 5.4822 0.6299 4.3262 2.067 5.7834 8.6959 2.6871 12.224-1.2812 1.4597-4.1834 2.1785-6.9224 1.7144zm-24.275-2.5602c-1.7196-0.8007-2.7995-2.017-3.8529-4.3396-0.56214-1.2395-0.68975-2.0769-0.6991-4.5881-0.0124-3.3362-0.0746-3.1775 2.3082-5.8885l1.018-1.1582 2.7772 0.0401c3.1805 0.0459 5.5123 0.77126 7.593 2.3619 3.5823 2.7386 3.6494 7.8674 0.15044 11.508-2.6471 2.7546-6.1437 3.531-9.2948 2.0637zm-25.107-3.2149c-0.86947-0.38441-4.2408-3.971-4.9336-5.2485-0.43564-0.80339-0.57904-1.6861-0.57264-3.5248 0.0143-4.0793 1.8174-7.0354 5.2739-8.6458 1.9371-0.90251 5.145-1.0077 7.444-0.24413 3.2269 1.0718 5.748 4.4925 6.0424 8.1984 0.33793 4.2549-1.7013 7.3688-5.7596 8.7952-1.8949 0.66599-6.5599 1.0828-7.4944 0.66959zm-25.535-3.12c-3.1017-0.61103-5.9181-2.931-7.3768-6.0765-0.66128-1.426-0.79996-2.1728-0.80394-4.3295-0.0062-3.3668 0.77694-5.2251 3.0947-7.3434 2.3165-2.1171 4.4417-2.8983 7.9307-2.9151 2.4965-0.012 2.9155 0.073 4.3947 0.89245 1.9878 1.1011 2.9377 2.1822 4.1089 4.6767 2.2098 4.7062 1.0964 10.263-2.6248 13.102-2.0805 1.5869-6.1115 2.5081-8.7235 1.9935zm162.94-4.2138c-0.0717-0.11714-0.0548-2.8691 0.0376-6.1154l0.16799-5.9024h9.046 9.046l-0.19922 2.8067c-0.10958 1.5437-0.19923 4.3067-0.19923 6.1401v3.3334l-8.8844-0.0246c-4.8864-0.0136-8.9431-0.12051-9.0148-0.23765zm-68.185-0.28884-4.0627-0.0952v-5.8637-5.8637l3.4495 0.19877c1.8972 0.10932 5.8986 0.19939 8.892 0.20016l5.4425 0.001-0.002 3.7561c-0.001 2.0658-0.0901 4.6875-0.19764 5.8258l-0.19551 2.0697-4.6316-0.067c-2.5474-0.0368-6.4598-0.10982-8.6944-0.16221zm19.854-5.7499v-5.9791l1.3031-0.006c0.71673-0.003 4.7181 0.16088 8.892 0.36465l7.5888 0.3705v5.6145 5.6144h-8.892-8.892v-5.9791zm24.223 0v-5.9791l2.0697 0.0299c1.1383 0.0164 5.1052 0.18887 8.8153 0.38327l6.7456 0.35346 0.0836 5.5958 0.0836 5.5958h-8.8989-8.8989v-5.9791zm-170.51 3.8786c-2.9777-0.97716-5.6729-3.2226-7.007-5.8377-0.32983-0.64651-0.76674-2.0821-0.97092-3.1902-0.31645-1.7174-0.29607-2.3194 0.13809-4.0787 1.2889-5.2231 5.5558-8.6657 11.101-8.9568 5.429-0.28495 9.8572 2.2656 12.048 6.9394 0.68327 1.4575 0.81574 2.1644 0.81574 4.3528 0 2.332-0.10787 2.8318-1.0039 4.652-1.2543 2.5478-3.6729 4.8387-6.126 5.8024-2.4236 0.95209-6.6104 1.0995-8.9955 0.3168zm77.054-12.6c-1.3045-0.3249-2.1043-1.0659-2.5244-2.3387-0.24783-0.75094-0.24464-1.1936 0.0121-1.6733 0.19198-0.35871 0.27912-0.83446 0.19364-1.0572-0.10435-0.27195 0.28504-0.51589 1.1853-0.74259 1.9271-0.48526 153.72-0.47825 155.83 0.007 1.3508 0.31181 1.5281 0.45495 1.853 1.496 0.2957 0.94745 0.27231 1.3726-0.13215 2.4022-0.44082 1.1222-0.62135 1.2694-1.753 1.4291-0.69386 0.0979-35.066 0.22321-76.384 0.27843-41.317 0.0552-75.605 0.17911-76.195 0.27531-0.59024 0.0962-1.5272 0.0618-2.0822-0.0764z"/>
</g>
</svg>
