<?xml version="1.0" encoding="UTF-8" standalone="no"?>
<svg xmlns:rdf="http://www.w3.org/1999/02/22-rdf-syntax-ns#" xmlns="http://www.w3.org/2000/svg" height="48" width="48" version="1.1" xmlns:cc="http://creativecommons.org/ns#" xmlns:dc="http://purl.org/dc/elements/1.1/" viewBox="0 0 48 48.000001">
<defs>
<linearGradient id="linearGradient4318" y2="11.705" gradientUnits="userSpaceOnUse" x2="7.5728" y1="36.583" x1="7.534">
<stop stop-color="#f0ffff" offset="0"/>
<stop stop-color="#f0ffff" stop-opacity=".39216" offset="1"/>
</linearGradient>
</defs>
<path stroke-linejoin="round" d="m10.561 11.824a17.68 17.68 0 0 0 -7.1919 14.188 17.68 17.68 0 0 0 3.5098 10.539h4.6891a17.68 17.68 0 0 1 -5.2477 -12.551 17.68 17.68 0 0 1 4.9117 -12.176h-0.671z" stroke="#f0ffff" stroke-width="0" fill="url(#linearGradient4318)"/>
<path d="m17.492 40.422c2.071 0.826 4.279 1.252 6.508 1.258 9.764-0.001 17.679-7.916 17.68-17.68-0.005-4.499-1.724-8.828-4.809-12.104" stroke="#f0ffff" stroke-linecap="round" stroke-dasharray="1, 2" fill="none"/>
<g transform="translate(.15254)" fill="#f0ffff">
<path d="m22.411 4.9529c-0.5252 0-0.85608 0.42016-0.85608 0.94536s0.33088 0.93486 0.85608 0.93486 0.85608-0.40966 0.85608-0.93486-0.33088-0.94536-0.85608-0.94536zm0 1.6885c-0.42016 0-0.63812-0.32037-0.63812-0.74316s0.21796-0.75366 0.63812-0.75366 0.63812 0.33088 0.63812 0.75366c0 0.42279-0.21796 0.74316-0.63812 0.74316z"/>
<path d="m24.112 5.0632c0.07353 0 0.13393 0.018382 0.16544 0.031512l0.0604-0.14968c-0.06-0.0315-0.138-0.0551-0.254-0.0551-0.27048 0-0.42279 0.13393-0.42279 0.43592v0.21533h-0.18382v0.16544h0.18382v1.1003h0.21796v-1.1003h0.39127v-0.16544h-0.39127v-0.20745c0-0.16544 0.06828-0.27048 0.23371-0.27048z"/>
<path d="m25.009 5.0632c0.07353 0 0.13393 0.018382 0.16544 0.031512l0.0604-0.14968c-0.06-0.0315-0.138-0.0551-0.254-0.0551-0.27048 0-0.42279 0.13393-0.42279 0.43592v0.21533h-0.18382v0.16544h0.18382v1.1003h0.21796v-1.1003h0.39127v-0.16544h-0.39127v-0.20745c0-0.16544 0.06828-0.27048 0.23371-0.27048z"/>
</g>
<path d="m9.2079 9.2771-0.38865 0.16544 0.0709 0.14706 0.34926-0.13393v1.4653h-0.48581v0.17332h1.1423v-0.17332h-0.43854v-1.6439h-0.24947z" fill="#f0ffff"/>
<path d="m1.0443 22.873 0.08666 0.14706c0.11029-0.07353 0.23109-0.15231 0.42016-0.15231 0.22058 0 0.37552 0.11817 0.37552 0.35188 0 0.25997-0.20483 0.49106-0.84032 1.2053v0.12342h1.0767v-0.17332h-0.77204c0.62761-0.71427 0.75366-0.90334 0.75366-1.1554 0-0.31775-0.23897-0.5252-0.55934-0.5252-0.25735 0-0.37027 0.0709-0.54096 0.17857z" fill="#f0ffff"/>
<path d="m6.1621 39.298c0.34138 0 0.63287-0.15231 0.63287-0.50682 0-0.30199-0.15493-0.42016-0.37289-0.47268 0.1418-0.07615 0.27836-0.20483 0.27836-0.43066 0-0.26785-0.19432-0.47005-0.53045-0.47005-0.1917 0-0.323 0.0709-0.49369 0.17857l0.086658 0.14706c0.11029-0.07353 0.24422-0.15231 0.40703-0.15231 0.19695 0 0.31249 0.11554 0.31249 0.31512 0 0.21271-0.20745 0.36239-0.3939 0.36239h-0.11817v0.17332h0.15493c0.10241 0 0.45167 0.03676 0.45167 0.33613 0 0.24684-0.18645 0.34663-0.43329 0.34663-0.17594 0-0.323-0.0604-0.43329-0.1313l-0.0867 0.148c0.17069 0.10504 0.29674 0.15756 0.53833 0.15756z" fill="#f0ffff"/>
<path id="Knob" fill="#f0ffff" d="m24 11.991a12.009 12.009 0 0 0 -12.009 12.009 12.009 12.009 0 0 0 12.009 12.009 12.009 12.009 0 0 0 12.009 -12.009 12.009 12.009 0 0 0 -12.009 -12.009zm-0.03021 1.1048a1.4386 1.4386 0 0 1 1.4386 1.4386 1.4386 1.4386 0 0 1 -1.4386 1.4386 1.4386 1.4386 0 0 1 -1.4386 -1.4386 1.4386 1.4386 0 0 1 1.4386 -1.4386z"/>
</svg>
