<?xml version="1.0" encoding="UTF-8" standalone="no"?>
<svg xmlns:rdf="http://www.w3.org/1999/02/22-rdf-syntax-ns#" xmlns="http://www.w3.org/2000/svg" height="128" width="256" version="1.1" xmlns:cc="http://creativecommons.org/ns#" xmlns:dc="http://purl.org/dc/elements/1.1/" viewBox="0 0 256 128">
<g transform="translate(0 -924.36)">
<path d="m11.645 0c-0.17 0.10894-2.611 0.19531-5.6977 0.19531h-5.9473v14.243 14.242l1.1738 0.627c0.6456 0.345 1.1739 0.788 1.1739 0.984s1.109 0.581 2.4648 0.855c1.3558 0.275 2.8878 0.595 3.4043 0.711 0.5165 0.117 2.5242 0.089 4.4612-0.062 1.937-0.152 9.649-0.324 17.138-0.383 13.454-0.106 19.375-0.654 19.723-1.822 0.085-0.285 0.279-7.174 0.432-15.309l0.267-14.281h-1.638c0.116 0.63804 0.225 6.9961 0.246 14.777l0.039 14.766-6.951 0.019-6.954 0.022 6.692-0.152 6.691-0.151v-14.855c0-7.778 0.091-13.939 0.205-14.426h-36.923zm57.88 0l-0.25 6.418c-0.174 4.455-0.25 11.479-0.168 15.611 0.14 7.007 0.208 7.502 1.018 7.364 0.478-0.082 0.754 0.039 0.611 0.269-0.142 0.23 0.655 0.864 1.772 1.406 1.552 0.755 2.159 0.857 2.58 0.436 0.303-0.303 0.174 0.189-0.285 1.092-0.61 1.198-0.833 2.72-0.826 5.633 0.009 4.153 0.329 5.482 2.683 11.152l1.414 3.402 4.983 0.059 4.982 0.058-4.705 0.569c-14.625 1.767-24.53 6.913-30.203 15.691-3.736 5.781-4.429 13.451-1.715 18.965 2.124 4.315 7.656 8.817 12.793 10.41 1.006 0.312 1.057 0.205 1.057-2.226 0-1.405-0.441-5.063-0.979-8.131-1.171-6.679-1.03-9.804 0.545-12.117 0.626-0.919 1.269-1.672 1.428-1.674 0.54-0.006 0.825 14.586 1.082 53.613h19.361c0.62-6.27 1.633-7.57 2.983-2.91 0.229 0.79 0.422 1.77 0.591 2.91h18.663c0-0.71 0.01-1.64 0.01-2.32 0.01-15.3 0.18-27.821 0.39-27.821s2.85 0.844 5.87 1.875c6.77 2.316 9.36 2.636 15.12 1.876 4.29-0.57 4.57-0.67 5.41-2.057 2.39-3.911 2.14-6.561-0.76-7.942-0.88-0.419-4.15-1.192-7.26-1.715-10.41-1.746-10.44-1.793-12.22-17.56-1-8.877-2.03-14.26-2.95-15.494-0.62-0.823-5.17-1.906-12.07-2.869l-4.459-0.623 4.129-0.049 4.14-0.047 1.09-2.465c2.81-6.352 3.81-12.816 2.66-17.096-0.82-3.019-4.34-7.437-7.64-9.57l-2.882-1.859 1.599-0.008c0.88-0.004 4.113-0.216 7.193-0.471s5.69-0.372 5.8-0.262c0.35 0.358-0.41 2.149-0.92 2.149-0.27 0-1.21 0.635-2.09 1.41-0.89 0.775-1.92 1.408-2.3 1.408-2 0 0.47 2.69 3.07 3.348 1.11 0.28 1.12 0.301 0.12 0.353-0.73 0.039-1.06 0.35-1.06 1.016 0 0.823 0.22 0.923 1.53 0.703 2.47-0.415 7.6-1.187 7.92-1.191 0.43-0.005 0.65-6.685 0.65-19.639 0-6.2806 0.14-10.929 0.3-10.33 0.24 0.8598 0.32 0.7176 0.36-0.67188v-0.07812h-50.165zm68.975 0c-0.32 3.7512-0.39 30.246-0.05 30.246 0.23 0 0.44-1.305 0.48-2.9 0.08-3.913 0.52-4.149 0.52-0.284v3.077l2.23 0.373c1.23 0.204 4.59 0.316 7.46 0.248 3.7-0.087 5.34 0.043 5.58 0.443 0.27 0.433 2.25 0.469 8.39 0.156 4.42-0.225 10.94-0.34 14.49-0.257 4.09 0.095 6.46-0.022 6.46-0.319 0-0.258-0.37-0.565-0.82-0.683-0.62-0.162-0.56-0.227 0.23-0.268 0.58-0.03 1.06 0.156 1.06 0.412 0 0.257 0.47 0.378 1.06 0.27 1.6-0.299 1.61-0.332 0.35-0.737l-1.18-0.377 1.18-0.052c2.41-0.111 2.37 0.191 2.23-15.098l-0.12-14.25h-49.55zm69.38 0l-0.05 0.41211c-0.14 1.0432-0.42 7.8121-0.62 15.043-0.19 7.231-0.36 13.359-0.36 13.617-0.01 0.302 6.78 0.557 19 0.713 10.46 0.134 21.52 0.292 24.58 0.352l5.57 0.109-0.29-4.578c-0.15-2.518-0.51-9.543-0.8-15.611-0.24-5.1063-0.43-8.7853-0.52-10.057h-46.51zm-68.21 2.7598c0.03 0.0105 0.06 0.056 0.09 0.1367 0.13 0.3228 0.13 0.851 0 1.1738s-0.23 0.0577-0.23-0.5879c0-0.4842 0.06-0.7543 0.14-0.7226zm-105.43 2.1953c9.025 0.0216 10.406 0.7466 6.379 2.7422-2.095 1.0381-3.004 1.1731-8.451 1.2539-6.92 0.1026-12.912-0.5611-12.912-1.4317 0-0.3135 0.298-0.9811 0.664-1.4824 0.614-0.8404 1.392-0.9225 9.979-1.0508 1.607-0.024 3.052-0.0343 4.341-0.0312zm44.313 0.0254c0.401 0.0191 0.883 0.0641 1.472 0.1308 1.566 0.1772 2.912 0.3862 2.991 0.4649 0.078 0.0787 0.001 0.7018-0.17 1.3847-0.436 1.737-1.448 2.0764-4.424 1.4805-2.812-0.563-3.451-1.4453-2.057-2.8398 0.505-0.505 0.985-0.6786 2.188-0.6211zm-70.904 0.1289c1.9411 0.0492 5.8895 0.4495 6.4175 0.7324 0.538 0.2878 0.326 0.7196-1.009 2.0547-1.811 1.8104-1.988 1.8711-3.428 1.168-0.7803-0.3812-3.0508-3.2611-3.0508-3.8692 0-0.0791 0.4233-0.1023 1.0703-0.0859zm89.89 0.0195c0.85 0.0067 1.755 0.0244 2.715 0.0508 4.39 0.1211 8.89 0.332 10 0.4687 1.79 0.219 1.96 0.3373 1.41 0.9922-0.34 0.4091-1.35 1.0573-2.26 1.4414-3.47 1.4763-21.07 0.9106-20.468-0.6582 0.138-0.3598 0.047-0.6543-0.203-0.6543-0.251 0-0.456-0.1864-0.456-0.414 0-0.8423 3.31-1.2735 9.262-1.2266zm41.705 1.2793c0.02 0.019 0.05 0.0989 0.07 0.2441 0.12 0.5811 0.12 1.5323 0 2.1133-0.11 0.5811-0.2 0.1055-0.2-1.0566 0-0.8716 0.05-1.3577 0.13-1.3008zm-106.66 5.6078c0.649 0 1.211 0.017 1.652 0.054 1.763 0.148 4.022 0.61 5.022 1.028 1.85 0.773 3.943 2.442 3.943 3.144 0 0.213-0.686 0.35-1.525 0.303-2.01-0.113-16.184-0.696-20.072-0.826-1.679-0.056-2.79-0.21-2.467-0.34 0.713-0.288 0.786-1.567 0.09-1.567-0.274 0-0.384-0.182-0.246-0.404 0.346-0.56 9.063-1.392 13.603-1.392zm46.777 0.365c0.845 0.014 1.725 0.503 2.536 1.467 0.668 0.794 1.214 1.64 1.214 1.879 0 0.238-0.686 0.396-1.525 0.351-3.334-0.179-5.518-0.453-5.518-0.693 0-0.139 0.439-0.867 0.973-1.617 0.669-0.939 1.476-1.401 2.32-1.387zm159.55 0.137c0.63 0.005 1.22 0.023 1.73 0.054 5.09 0.313 7.32 0.912 9.04 2.422l1.29 1.137-7.75-0.076c-7.48-0.073-17.41-0.543-15.96-0.758 0.57-0.086 0.55-0.223-0.15-0.75-0.54-0.412-0.67-0.757-0.35-0.955 0.89-0.55 7.71-1.112 12.15-1.074zm-198.82 7.455l1.555 1.648c0.855 0.907 1.554 1.951 1.554 2.32s-0.263 0.634-0.586 0.588c-1.201-0.17-14.832-0.738-19.134-0.797l-4.461-0.06v-1.428c0-1.054 0.246-1.478 0.939-1.615 0.517-0.102 5.257-0.29 10.535-0.42l9.598-0.236zm127.12 0.203c1.6-0.001 3.47 0.052 5.67 0.154 7.27 0.338 7.87 0.529 7.89 2.522 0 0.76-0.85 0.82-11.5 0.82-6.33 0-11.5-0.174-11.5-0.387s0.52-0.887 1.17-1.496c1.2-1.122 3.49-1.611 8.27-1.613zm54.57 0.06l-0.73 1.045c-0.4 0.575-0.63 1.454-0.5 1.953 0.18 0.676 0.02 0.885-0.63 0.821-0.49-0.048-2.01-0.164-3.38-0.26-2.14-0.148-2.46-0.292-2.18-0.971 0.18-0.437 0.34-1.058 0.35-1.381 0.02-0.322 0.47-0.588 1-0.591 0.54-0.003 2.13-0.143 3.53-0.311l2.54-0.305zm-214.74 0.383c1.551 0.044 7.198 0.704 7.396 0.902 0.365 0.365-1.319 3.073-2.205 3.547-1.261 0.675-1.607 0.618-3.025-0.498-1.1398-0.896-2.9138-3.628-2.5528-3.929 0.0266-0.023 0.1652-0.028 0.3868-0.022zm143.78 0.235c1.24-0.024 1.36 0.147 1.15 0.685-0.17 0.441-0.31 1.101-0.31 1.467 0 0.512-0.77 0.666-3.32 0.666-3.22 0-3.31-0.028-2.99-1.055 0.46-1.493 0.39-1.463 3.82-1.681 0.7-0.045 1.23-0.075 1.65-0.082zm77.58 0.046c1.43-0.032 3.63 0.008 6.72 0.116 4.84 0.169 10.24 0.307 11.99 0.308 3.04 0.001 3.16 0.046 2.69 0.936-0.28 0.514-1.12 1.252-1.87 1.642-1.09 0.56-3.26 0.709-10.28 0.709h-8.9l-1.22-1.443c-0.67-0.795-1.21-1.674-1.21-1.953 0-0.179 0.65-0.282 2.08-0.315zm-136.14 0.938c5.043-0.044 5.178 0.704 0.191 1.058-2.379 0.169-4.98 0.285-5.779 0.258-2.946-0.099 2.087-1.285 5.588-1.316zm-8.465 1.834l-1.752 0.939c-0.964 0.517-1.911 0.914-2.106 0.883-0.194-0.031-1.517-0.279-2.937-0.555l-2.582-0.5 2.113-0.349c1.162-0.192 3.271-0.364 4.688-0.383l2.576-0.035zm-9.436 1.967c0.032-0.012 0.069 0 0.108 0.039 0.156 0.156 0.172 0.561 0.037 0.9-0.15 0.375-0.261 0.264-0.283-0.283-0.016-0.371 0.042-0.621 0.138-0.656zm-59.338 3.254c1.32 0 2.638 0.022 3.639 0.066 2.001 0.088 0.364 0.16-3.639 0.16-4.002 0-5.6397-0.072-3.638-0.16 1-0.044 2.319-0.066 3.638-0.066zm164.8 1.41c0.3 0 0.6 0.031 0.82 0.09 0.46 0.118 0.09 0.214-0.82 0.214-0.9 0-1.27-0.096-0.82-0.214 0.23-0.059 0.53-0.09 0.82-0.09zm-8.64 12.035c-4.36 0.139-9.19 2.083-12.83 5.428-2.82 2.594-4.22 4.888-5.11 8.38-2.14 8.334 3.61 17.441 12.51 19.833 3.14 0.844 4.31 0.887 7.52 0.279 3.63-0.689 6.98-2.396 9.26-4.719 7.59-7.757 4.28-23.753-5.85-28.234-1.63-0.722-3.51-1.03-5.5-0.967zm4.42 38.736c-1.07-0.043-2.86 0.009-5.75 0.143-3.94 0.181-7.21 0.37-7.27 0.418s1.06 2.502 2.49 5.455c2.42 4.986 2.59 5.558 2.39 8.008-0.21 2.578-0.18 2.655 1.26 3.349 1.53 0.735 2.65 0.384 2.65-0.826 0-0.326 1.27-3.944 2.82-8.041s2.81-7.73 2.81-8.072c0-0.252-0.34-0.39-1.4-0.434zm11.15 2.623c-0.62-0.119-2.05 1.742-5.68 7.354l-4.86 7.513 2.39 0.276c1.32 0.151 7.11 0.309 12.88 0.351l10.47 0.077-0.31-1.055c-1.49-5.068-10.26-13.621-14.89-14.516zm-32.31 0.076c-1.56 0-5.46 1.608-7.49 3.088-5.4 3.944-7.93 7.543-7.97 11.352l-0.01 1.055h11.98 11.97l-3.87-7.747c-2.56-5.135-4.12-7.748-4.61-7.748zm-105.75 19.297c-3.296-0.02-6.693 0.11-9.58 0.4-8.07 0.81-7.533 0.54-7.283 3.69 0.116 1.47 0.277 2.75 0.357 2.84 0.081 0.09 2.643 0.44 5.694 0.77 9.862 1.07 18.931 0.82 24.47-0.68l2.022-0.54-0.143-2.21-0.142-2.2-2.582-0.89c-2.104-0.73-7.318-1.15-12.813-1.18zm109.19 0.04c-21.41 0.04-33.81 0.47-40.47 1.36-5.29 0.71-5.2 0.66-5.2 3.02v2.05l1.99 0.3c1.1 0.16 5.91 0.47 10.69 0.68 9.14 0.41 99.78 0.42 100.14 0.02 0.12-0.13 0.32-1.64 0.45-3.35l0.24-3.12-2.87-0.28c-1.59-0.16-19.78-0.42-40.44-0.59-9.26-0.07-17.39-0.1-24.53-0.09z" transform="translate(0 924.36)" fill="#f0ffff"/>
</g>
</svg>
